<svg width="343" height="50" viewBox="0 0 343 50" fill="none" xmlns="http://www.w3.org/2000/svg">
<rect width="343" height="50" rx="4" fill="black"/>
<path d="M98.6482 32V17.68H103.608C104.248 17.68 104.848 17.7867 105.408 18C105.982 18.2133 106.482 18.5133 106.908 18.9C107.335 19.2867 107.668 19.7533 107.908 20.3C108.162 20.8333 108.288 21.4267 108.288 22.08C108.288 22.72 108.162 23.3133 107.908 23.86C107.668 24.3933 107.335 24.8533 106.908 25.24C106.482 25.6267 105.982 25.9267 105.408 26.14C104.848 26.3533 104.248 26.46 103.608 26.46H100.908V32H98.6482ZM103.668 24.3C104.042 24.3 104.375 24.24 104.668 24.12C104.962 23.9867 105.208 23.8133 105.408 23.6C105.608 23.3867 105.762 23.1467 105.868 22.88C105.975 22.6133 106.028 22.3467 106.028 22.08C106.028 21.8 105.975 21.5267 105.868 21.26C105.762 20.9933 105.608 20.76 105.408 20.56C105.208 20.3467 104.962 20.1733 104.668 20.04C104.375 19.9067 104.042 19.84 103.668 19.84H100.908V24.3H103.668ZM116.2 30.8H116.08C115.787 31.1867 115.407 31.54 114.94 31.86C114.473 32.1667 113.88 32.32 113.16 32.32C112.64 32.32 112.153 32.2333 111.7 32.06C111.247 31.9 110.853 31.6733 110.52 31.38C110.187 31.0733 109.92 30.72 109.72 30.32C109.533 29.9067 109.44 29.4533 109.44 28.96C109.44 28.44 109.54 27.9733 109.74 27.56C109.953 27.1467 110.24 26.8 110.6 26.52C110.973 26.24 111.413 26.0267 111.92 25.88C112.427 25.72 112.973 25.64 113.56 25.64C114.213 25.64 114.76 25.7067 115.2 25.84C115.64 25.96 115.973 26.0733 116.2 26.18V25.8C116.2 25.5067 116.133 25.2333 116 24.98C115.88 24.7267 115.707 24.5133 115.48 24.34C115.267 24.1533 115.02 24.0133 114.74 23.92C114.46 23.8133 114.167 23.76 113.86 23.76C113.367 23.76 112.92 23.86 112.52 24.06C112.133 24.2467 111.787 24.5533 111.48 24.98L109.72 23.82C110.187 23.18 110.767 22.7 111.46 22.38C112.153 22.0467 112.94 21.88 113.82 21.88C115.273 21.88 116.393 22.24 117.18 22.96C117.98 23.68 118.38 24.7067 118.38 26.04V32H116.2V30.8ZM116.2 27.92C115.907 27.7467 115.58 27.6067 115.22 27.5C114.86 27.3933 114.447 27.34 113.98 27.34C113.287 27.34 112.733 27.5 112.32 27.82C111.907 28.14 111.7 28.5267 111.7 28.98C111.7 29.22 111.753 29.4333 111.86 29.62C111.967 29.7933 112.1 29.9467 112.26 30.08C112.433 30.2133 112.627 30.3133 112.84 30.38C113.067 30.4467 113.293 30.48 113.52 30.48C113.88 30.48 114.22 30.4133 114.54 30.28C114.873 30.1333 115.16 29.9467 115.4 29.72C115.64 29.48 115.833 29.2067 115.98 28.9C116.127 28.5933 116.2 28.2667 116.2 27.92ZM123.814 31.44L119.734 22.2H122.214L124.914 28.7H125.014L127.634 22.2H130.094L123.954 36.32H121.594L123.814 31.44ZM135.655 22.2H138.075L139.975 28.98H140.055L142.255 22.2H144.555L146.735 28.98H146.815L148.695 22.2H151.075L147.935 32H145.595L143.375 25.14H143.295L141.135 32H138.795L135.655 22.2ZM154.061 20.46C153.635 20.46 153.275 20.3133 152.981 20.02C152.701 19.7267 152.561 19.3733 152.561 18.96C152.561 18.5467 152.701 18.1933 152.981 17.9C153.275 17.6067 153.635 17.46 154.061 17.46C154.475 17.46 154.821 17.6067 155.101 17.9C155.395 18.1933 155.541 18.5467 155.541 18.96C155.541 19.3733 155.395 19.7267 155.101 20.02C154.821 20.3133 154.475 20.46 154.061 20.46ZM152.941 32V22.2H155.161V32H152.941ZM159.049 24.16H157.329V22.2H159.049V19.2H161.269V22.2H163.689V24.16H161.269V28.52C161.269 28.76 161.295 28.98 161.349 29.18C161.402 29.38 161.482 29.5467 161.589 29.68C161.815 29.9333 162.102 30.06 162.449 30.06C162.662 30.06 162.829 30.0467 162.949 30.02C163.069 29.98 163.195 29.9267 163.329 29.86L164.009 31.82C163.729 31.9267 163.435 32.0067 163.129 32.06C162.822 32.1267 162.475 32.16 162.089 32.16C161.622 32.16 161.209 32.0867 160.849 31.94C160.489 31.7933 160.175 31.5933 159.909 31.34C159.335 30.7667 159.049 29.9867 159.049 29V24.16ZM166.125 17.68H168.345V21.94L168.225 23.52H168.345C168.625 23.0533 169.038 22.6667 169.585 22.36C170.132 22.04 170.738 21.88 171.405 21.88C172.045 21.88 172.598 21.98 173.065 22.18C173.532 22.3667 173.918 22.64 174.225 23C174.532 23.36 174.758 23.7933 174.905 24.3C175.052 24.7933 175.125 25.34 175.125 25.94V32H172.905V26.24C172.905 25.4267 172.705 24.84 172.305 24.48C171.918 24.12 171.425 23.94 170.825 23.94C170.438 23.94 170.092 24.0267 169.785 24.2C169.492 24.36 169.232 24.58 169.005 24.86C168.792 25.14 168.625 25.46 168.505 25.82C168.398 26.18 168.345 26.5533 168.345 26.94V32H166.125V17.68Z" fill="white"/>
<path d="M212.951 24.6726V31.7486H210.69V14.2749H216.684C218.203 14.2749 219.498 14.7778 220.558 15.7837C221.641 16.7895 222.183 18.0176 222.183 19.4679C222.183 20.9533 221.641 22.1813 220.558 23.1755C219.51 24.1696 218.215 24.6609 216.684 24.6609H212.951V24.6726ZM212.951 16.4269V22.5205H216.731C217.626 22.5205 218.379 22.2164 218.968 21.6199C219.569 21.0234 219.875 20.2983 219.875 19.4796C219.875 18.6726 219.569 17.9591 218.968 17.3626C218.379 16.7427 217.638 16.4386 216.731 16.4386H212.951V16.4269Z" fill="white"/>
<path d="M228.094 19.3977C229.766 19.3977 231.085 19.8421 232.05 20.731C233.016 21.6199 233.499 22.8363 233.499 24.3802V31.7486H231.344V30.0878H231.25C230.319 31.4562 229.071 32.1345 227.517 32.1345C226.186 32.1345 225.079 31.7486 224.185 30.9649C223.29 30.1813 222.842 29.2106 222.842 28.041C222.842 26.8012 223.313 25.8188 224.255 25.0936C225.197 24.3568 226.457 23.9942 228.023 23.9942C229.366 23.9942 230.472 24.2398 231.332 24.731V24.2164C231.332 23.4328 231.026 22.7778 230.402 22.2281C229.778 21.6784 229.048 21.4094 228.212 21.4094C226.952 21.4094 225.951 21.9357 225.221 23L223.231 21.7603C224.326 20.1813 225.951 19.3977 228.094 19.3977ZM225.174 28.0761C225.174 28.6609 225.421 29.1521 225.927 29.538C226.422 29.924 227.011 30.1228 227.682 30.1228C228.636 30.1228 229.483 29.772 230.225 29.0702C230.967 28.3685 231.344 27.5497 231.344 26.6024C230.637 26.0527 229.66 25.772 228.4 25.772C227.482 25.772 226.716 25.9942 226.104 26.4269C225.48 26.8831 225.174 27.4328 225.174 28.0761Z" fill="white"/>
<path d="M245.792 19.7837L238.256 37.0001H235.924L238.727 30.9767L233.758 19.7837H236.219L239.798 28.3685H239.845L243.331 19.7837H245.792Z" fill="white"/>
<path d="M203.959 23.2456C203.959 22.5134 203.893 21.8128 203.77 21.1392H194.294V24.9988L199.751 25C199.53 26.2842 198.818 27.3789 197.726 28.1087V30.6128H200.975C202.872 28.869 203.959 26.2912 203.959 23.2456Z" fill="#4285F4"/>
<path d="M197.727 28.1088C196.823 28.7146 195.658 29.069 194.296 29.069C191.664 29.069 189.432 27.3076 188.632 24.9333H185.281V27.5158C186.941 30.7883 190.354 33.0339 194.296 33.0339C197.021 33.0339 199.31 32.1439 200.976 30.6117L197.727 28.1088Z" fill="#34A853"/>
<path d="M188.317 23.0176C188.317 22.3509 188.428 21.7065 188.632 21.1006V18.5182H185.281C184.594 19.8714 184.208 21.3989 184.208 23.0176C184.208 24.6363 184.596 26.1638 185.281 27.517L188.632 24.9346C188.428 24.3287 188.317 23.6843 188.317 23.0176Z" fill="#FABB05"/>
<path d="M194.296 16.9649C195.783 16.9649 197.115 17.4737 198.166 18.4678L201.045 15.6105C199.297 13.993 197.017 13 194.296 13C190.355 13 186.941 15.2456 185.281 18.5181L188.632 21.1006C189.432 18.7263 191.664 16.9649 194.296 16.9649Z" fill="#E94235"/>
</svg>
